<?xml version="1.0" encoding="UTF-8"?>
<!DOCTYPE svg PUBLIC "-//W3C//DTD SVG 1.1//EN" "http://www.w3.org/Graphics/SVG/1.1/DTD/svg11.dtd">
<svg xmlns="http://www.w3.org/2000/svg" version="1.1" width="50px" height="50px" style="shape-rendering:geometricPrecision; text-rendering:geometricPrecision; image-rendering:optimizeQuality; fill-rule:evenodd; clip-rule:evenodd" xmlns:xlink="http://www.w3.org/1999/xlink">
<g><path style="opacity:0.929" fill="#000000" d="M 49.5,19.5 C 49.5,21.5 49.5,23.5 49.5,25.5C 48.1667,25.5 46.8333,25.5 45.5,25.5C 45.6663,32.175 45.4996,38.8417 45,45.5C 44.5,46 44,46.5 43.5,47C 30.8333,47.6667 18.1667,47.6667 5.5,47C 5,46.5 4.5,46 4,45.5C 3.50042,38.8417 3.33375,32.175 3.5,25.5C 2.16667,25.5 0.833333,25.5 -0.5,25.5C -0.5,23.5 -0.5,21.5 -0.5,19.5C 2.43585,18.5942 5.43585,17.9275 8.5,17.5C 8.5,12.1667 8.5,6.83333 8.5,1.5C 19.1667,1.5 29.8333,1.5 40.5,1.5C 40.5,6.83333 40.5,12.1667 40.5,17.5C 43.5641,17.9275 46.5641,18.5942 49.5,19.5 Z M 10.5,3.5 C 19.8333,3.5 29.1667,3.5 38.5,3.5C 38.5,8.16667 38.5,12.8333 38.5,17.5C 34.8183,17.3347 31.1516,17.5014 27.5,18C 25.2659,22.9492 26.9325,25.4492 32.5,25.5C 27.1667,26.8333 21.8333,26.8333 16.5,25.5C 22.0675,25.4492 23.7341,22.9492 21.5,18C 17.8484,17.5014 14.1817,17.3347 10.5,17.5C 10.5,12.8333 10.5,8.16667 10.5,3.5 Z M 5.5,19.5 C 9.84611,19.3343 14.1794,19.501 18.5,20C 19.8333,20.6667 19.8333,21.3333 18.5,22C 16.8659,22.4935 15.1992,22.6602 13.5,22.5C 13.5,24.5 13.5,26.5 13.5,28.5C 20.8333,28.5 28.1667,28.5 35.5,28.5C 35.5,26.5 35.5,24.5 35.5,22.5C 33.8008,22.6602 32.1341,22.4935 30.5,22C 29.1667,21.3333 29.1667,20.6667 30.5,20C 34.8206,19.501 39.1539,19.3343 43.5,19.5C 43.8019,27.5559 43.4685,35.5559 42.5,43.5C 41.9747,44.1924 41.3081,44.6924 40.5,45C 29.8333,45.6667 19.1667,45.6667 8.5,45C 7.69194,44.6924 7.02527,44.1924 6.5,43.5C 5.53147,35.5559 5.19813,27.5559 5.5,19.5 Z M 1.5,21.5 C 3.33702,21.6395 3.67036,22.3061 2.5,23.5C 1.70245,23.0431 1.36912,22.3764 1.5,21.5 Z M 45.5,21.5 C 47.337,21.6395 47.6704,22.3061 46.5,23.5C 45.7025,23.0431 45.3691,22.3764 45.5,21.5 Z"/></g>
<g><path style="opacity:0.935" fill="#000000" d="M 13.5,7.5 C 20.5316,7.16967 27.5316,7.503 34.5,8.5C 31,8.83333 27.5,9.16667 24,9.5C 20.0982,9.48771 16.5982,8.82104 13.5,7.5 Z"/></g>
<g><path style="opacity:0.914" fill="#000000" d="M 13.5,11.5 C 18.8746,11.1718 24.2079,11.5052 29.5,12.5C 26.8333,12.8333 24.1667,13.1667 21.5,13.5C 18.4098,13.4783 15.7432,12.8117 13.5,11.5 Z"/></g>
<g><path style="opacity:0.766" fill="#000000" d="M 9.5,32.5 C 11.337,32.6395 11.6704,33.3061 10.5,34.5C 9.70245,34.0431 9.36912,33.3764 9.5,32.5 Z"/></g>
<g><path style="opacity:0.766" fill="#000000" d="M 13.5,32.5 C 15.337,32.6395 15.6704,33.3061 14.5,34.5C 13.7025,34.0431 13.3691,33.3764 13.5,32.5 Z"/></g>
<g><path style="opacity:0.766" fill="#000000" d="M 17.5,32.5 C 19.337,32.6395 19.6704,33.3061 18.5,34.5C 17.7025,34.0431 17.3691,33.3764 17.5,32.5 Z"/></g>
<g><path style="opacity:0.766" fill="#000000" d="M 21.5,32.5 C 23.337,32.6395 23.6704,33.3061 22.5,34.5C 21.7025,34.0431 21.3691,33.3764 21.5,32.5 Z"/></g>
<g><path style="opacity:0.766" fill="#000000" d="M 25.5,32.5 C 27.337,32.6395 27.6704,33.3061 26.5,34.5C 25.7025,34.0431 25.3691,33.3764 25.5,32.5 Z"/></g>
<g><path style="opacity:0.766" fill="#000000" d="M 29.5,32.5 C 31.337,32.6395 31.6704,33.3061 30.5,34.5C 29.7025,34.0431 29.3691,33.3764 29.5,32.5 Z"/></g>
<g><path style="opacity:0.766" fill="#000000" d="M 33.5,32.5 C 35.337,32.6395 35.6704,33.3061 34.5,34.5C 33.7025,34.0431 33.3691,33.3764 33.5,32.5 Z"/></g>
<g><path style="opacity:0.766" fill="#000000" d="M 37.5,32.5 C 39.337,32.6395 39.6704,33.3061 38.5,34.5C 37.7025,34.0431 37.3691,33.3764 37.5,32.5 Z"/></g>
<g><path style="opacity:0.766" fill="#000000" d="M 11.5,36.5 C 13.337,36.6395 13.6704,37.3061 12.5,38.5C 11.7025,38.0431 11.3691,37.3764 11.5,36.5 Z"/></g>
<g><path style="opacity:0.766" fill="#000000" d="M 15.5,36.5 C 17.337,36.6395 17.6704,37.3061 16.5,38.5C 15.7025,38.0431 15.3691,37.3764 15.5,36.5 Z"/></g>
<g><path style="opacity:0.766" fill="#000000" d="M 19.5,36.5 C 21.337,36.6395 21.6704,37.3061 20.5,38.5C 19.7025,38.0431 19.3691,37.3764 19.5,36.5 Z"/></g>
<g><path style="opacity:0.766" fill="#000000" d="M 23.5,36.5 C 25.337,36.6395 25.6704,37.3061 24.5,38.5C 23.7025,38.0431 23.3691,37.3764 23.5,36.5 Z"/></g>
<g><path style="opacity:0.766" fill="#000000" d="M 27.5,36.5 C 29.337,36.6395 29.6704,37.3061 28.5,38.5C 27.7025,38.0431 27.3691,37.3764 27.5,36.5 Z"/></g>
<g><path style="opacity:0.766" fill="#000000" d="M 31.5,36.5 C 33.337,36.6395 33.6704,37.3061 32.5,38.5C 31.7025,38.0431 31.3691,37.3764 31.5,36.5 Z"/></g>
<g><path style="opacity:0.766" fill="#000000" d="M 35.5,36.5 C 37.337,36.6395 37.6704,37.3061 36.5,38.5C 35.7025,38.0431 35.3691,37.3764 35.5,36.5 Z"/></g>
<g><path style="opacity:0.977" fill="#000000" d="M 14.5,40.5 C 21.1998,40.17 27.8665,40.5033 34.5,41.5C 31.1667,41.8333 27.8333,42.1667 24.5,42.5C 20.7614,42.4864 17.428,41.8197 14.5,40.5 Z"/></g>
</svg>
